# 3ds Max Wavefront OBJ Exporter v0.97b - (c)2007 guruware
# File Created: 07.11.2013 15:29:34

#
# object Box001
#

v  -5.8770 0.0000 -3.6017
v  6.1230 0.0000 -3.6017
v  6.1230 0.0000 5.8743
v  -5.8770 0.0000 5.8743
v  6.1230 5.8086 5.8743
v  -5.8770 5.8086 5.8743
v  6.1230 5.8086 -3.6017
v  -5.8770 0.0000 -6.1230
v  -5.8770 5.8086 -6.1230
v  6.1230 5.8086 -6.1230
v  6.1230 0.0000 -6.1230
v  -5.8770 5.8086 -3.6017
v  6.1230 12.0000 -6.1230
v  6.1230 12.0000 -3.6017
v  -5.8770 12.0000 -6.1230
v  -5.8770 12.0000 -3.6017
v  -5.8770 7.1713 5.8743
v  6.1230 7.1713 5.8743
v  1.6351 8.0333 3.6978
v  1.6351 8.5482 3.9677
v  -0.0000 8.3447 4.3557
v  -0.0000 7.8299 4.0858
v  2.8320 8.5891 2.6377
v  2.8320 9.1039 2.9075
v  3.2701 9.3482 1.1895
v  3.2701 9.8631 1.4594
v  2.8320 10.1074 -0.2586
v  2.8320 10.6222 0.0113
v  1.6351 10.6631 -1.3187
v  1.6351 11.1779 -1.0489
v  0.0000 10.8665 -1.7068
v  0.0000 11.3814 -1.4369
v  -1.6351 10.6631 -1.3187
v  -1.6351 11.1779 -1.0489
v  -2.8320 10.1074 -0.2586
v  -2.8320 10.6222 0.0113
v  -3.2701 9.3482 1.1895
v  -3.2701 9.8631 1.4594
v  -2.8320 8.5891 2.6377
v  -2.8320 9.1039 2.9075
v  -1.6351 8.0333 3.6978
v  -1.6351 8.5482 3.9677
v  0.2575 9.9849 2.0268
v  0.0000 9.9528 2.0879
v  0.4460 10.0724 1.8599
v  0.5150 10.1919 1.6318
v  0.4460 10.3115 1.4038
v  0.2575 10.3990 1.2368
v  0.0000 10.4310 1.1757
v  -0.2575 10.3990 1.2368
v  -0.4460 10.3115 1.4038
v  -0.5150 10.1919 1.6318
v  -0.4460 10.0724 1.8599
v  -0.2575 9.9849 2.0268
# 54 vertices

vn 0.0000 -1.0000 -0.0000
vn 0.0000 0.0000 1.0000
vn 1.0000 0.0000 -0.0000
vn 0.0000 0.0000 -1.0000
vn -1.0000 0.0000 -0.0000
vn 0.0000 1.0000 -0.0000
vn 0.0000 0.8910 0.4540
vn 0.5000 -0.4021 0.7670
vn -0.0000 -0.4643 0.8857
vn 0.8660 -0.2321 0.4428
vn 1.0000 0.0000 0.0000
vn 0.8660 0.2321 -0.4428
vn 0.5000 0.4021 -0.7670
vn 0.0000 0.4643 -0.8857
vn -0.5000 0.4021 -0.7670
vn -0.8660 0.2321 -0.4428
vn -1.0000 0.0000 0.0000
vn -0.8660 -0.2321 0.4428
vn -0.5000 -0.4021 0.7670
vn 0.0358 0.8152 0.5781
vn 0.0977 0.8318 0.5464
vn 0.1335 0.8606 0.4915
vn 0.1335 0.8938 0.4282
vn 0.0977 0.9226 0.3733
vn 0.0358 0.9392 0.3416
vn -0.0358 0.9392 0.3416
vn -0.0977 0.9226 0.3733
vn -0.1335 0.8938 0.4282
vn -0.1335 0.8606 0.4915
vn -0.0977 0.8318 0.5464
vn -0.0358 0.8152 0.5781
vn 0.0000 0.8857 0.4643
vn -0.0000 0.8857 0.4643
# 33 vertex normals

vt 0.6455 0.6023 0.0000
vt 0.3316 0.6023 0.0000
vt 0.3316 0.3544 0.0000
vt 0.6455 0.3544 0.0000
vt 0.3316 0.8788 0.0000
vt 0.3316 0.7269 0.0000
vt 0.6455 0.7269 0.0000
vt 0.6455 0.8788 0.0000
vt 0.6684 0.4204 0.0000
vt 0.8204 0.4204 0.0000
vt 0.8204 0.6683 0.0000
vt 0.6684 0.6683 0.0000
vt 0.3239 0.0100 0.0000
vt 0.3239 0.1620 0.0000
vt 0.0100 0.1620 0.0000
vt 0.0100 0.0100 0.0000
vt 0.3316 0.2579 0.0000
vt 0.4835 0.2579 0.0000
vt 0.4835 0.3238 0.0000
vt 0.3316 0.3238 0.0000
vt 0.9824 0.3544 0.0000
vt 0.9824 0.4204 0.0000
vt 0.8204 0.3544 0.0000
vt 0.3239 0.3239 0.0000
vt 0.0100 0.3239 0.0000
vt 0.6455 0.6683 0.0000
vt 0.3316 0.6683 0.0000
vt 0.6761 0.0100 0.0000
vt 0.9900 0.0100 0.0000
vt 0.9900 0.0760 0.0000
vt 0.6761 0.0760 0.0000
vt 0.6684 0.3544 0.0000
vt 0.3316 0.0100 0.0000
vt 0.4835 0.0100 0.0000
vt 0.6455 0.3238 0.0000
vt 0.6455 0.2579 0.0000
vt 0.5192 0.0100 0.0000
vt 0.8560 0.6683 0.0000
vt 0.3316 0.6912 0.0000
vt 0.6455 0.6912 0.0000
vt 0.9900 0.3238 0.0000
vt 0.6761 0.3238 0.0000
vt 0.2932 0.4987 0.0000
vt 0.3056 0.4988 0.0000
vt 0.3053 0.5349 0.0000
vt 0.2929 0.5348 0.0000
vt 0.2935 0.4627 0.0000
vt 0.3059 0.4628 0.0000
vt 0.2938 0.4266 0.0000
vt 0.3061 0.4267 0.0000
vt 0.2940 0.3906 0.0000
vt 0.3064 0.3907 0.0000
vt 0.2943 0.3545 0.0000
vt 0.3067 0.3546 0.0000
vt 0.2909 0.7871 0.0000
vt 0.2912 0.7511 0.0000
vt 0.3036 0.7512 0.0000
vt 0.3033 0.7872 0.0000
vt 0.2915 0.7150 0.0000
vt 0.3039 0.7151 0.0000
vt 0.2918 0.6790 0.0000
vt 0.3042 0.6791 0.0000
vt 0.2921 0.6429 0.0000
vt 0.3044 0.6430 0.0000
vt 0.2924 0.6069 0.0000
vt 0.3047 0.6070 0.0000
vt 0.2926 0.5708 0.0000
vt 0.3050 0.5709 0.0000
vt 0.0865 0.4201 0.0000
vt 0.0932 0.4218 0.0000
vt 0.0928 0.4811 0.0000
vt 0.0501 0.4707 0.0000
vt 0.0816 0.4157 0.0000
vt 0.0190 0.4428 0.0000
vt 0.0798 0.4098 0.0000
vt 0.0078 0.4048 0.0000
vt 0.0816 0.4038 0.0000
vt 0.0194 0.3670 0.0000
vt 0.0866 0.3995 0.0000
vt 0.0509 0.3395 0.0000
vt 0.0933 0.3979 0.0000
vt 0.0938 0.3296 0.0000
vt 0.1001 0.3996 0.0000
vt 0.1365 0.3400 0.0000
vt 0.1050 0.4040 0.0000
vt 0.1676 0.3679 0.0000
vt 0.1067 0.4099 0.0000
vt 0.1788 0.4059 0.0000
vt 0.1049 0.4159 0.0000
vt 0.1671 0.4437 0.0000
vt 0.0999 0.4202 0.0000
vt 0.1357 0.4712 0.0000
# 92 texture coords

g Box001
f 1/1/1 2/2/1 3/3/1 
f 3/3/1 4/4/1 1/1/1 
f 3/5/2 5/6/2 6/7/2 
f 6/7/2 4/8/2 3/5/2 
f 2/9/3 7/10/3 5/11/3 
f 5/11/3 3/12/3 2/9/3 
f 8/13/4 9/14/4 10/15/4 
f 10/15/4 11/16/4 8/13/4 
f 1/17/5 12/18/5 9/19/5 
f 9/19/5 8/20/5 1/17/5 
f 13/21/3 14/22/3 7/10/3 
f 7/10/3 10/23/3 13/21/3 
f 15/24/4 13/25/4 10/15/4 
f 10/15/4 9/14/4 15/24/4 
f 8/26/1 11/27/1 2/2/1 
f 2/2/1 1/1/1 8/26/1 
f 13/28/6 15/29/6 16/30/6 
f 16/30/6 14/31/6 13/28/6 
f 11/32/3 10/23/3 7/10/3 
f 7/10/3 2/9/3 11/32/3 
f 4/33/5 6/34/5 12/18/5 
f 12/18/5 1/17/5 4/33/5 
f 15/35/5 9/19/5 12/18/5 
f 12/18/5 16/36/5 15/35/5 
f 12/18/5 6/34/5 17/37/5 
f 17/37/5 16/36/5 12/18/5 
f 7/10/3 14/22/3 18/38/3 
f 18/38/3 5/11/3 7/10/3 
f 18/39/2 17/40/2 6/7/2 
f 6/7/2 5/6/2 18/39/2 
f 14/31/7 16/30/7 17/41/7 
f 17/41/7 18/42/7 14/31/7 
f 19/43/8 20/44/8 21/45/9 
f 21/45/9 22/46/9 19/43/8 
f 19/43/8 23/47/10 24/48/10 
f 24/48/10 20/44/8 19/43/8 
f 23/47/10 25/49/11 26/50/11 
f 26/50/11 24/48/10 23/47/10 
f 25/49/11 27/51/12 28/52/12 
f 28/52/12 26/50/11 25/49/11 
f 27/51/12 29/53/13 30/54/13 
f 30/54/13 28/52/12 27/51/12 
f 29/55/13 31/56/14 32/57/14 
f 32/57/14 30/58/13 29/55/13 
f 31/56/14 33/59/15 34/60/15 
f 34/60/15 32/57/14 31/56/14 
f 33/59/15 35/61/16 36/62/16 
f 36/62/16 34/60/15 33/59/15 
f 35/61/16 37/63/5 38/64/17 
f 38/64/17 36/62/16 35/61/16 
f 37/63/5 39/65/18 40/66/18 
f 40/66/18 38/64/17 37/63/5 
f 39/65/18 41/67/19 42/68/19 
f 42/68/19 40/66/18 39/65/18 
f 41/67/19 22/46/9 21/45/9 
f 21/45/9 42/68/19 41/67/19 
f 43/69/20 44/70/20 21/71/20 
f 21/71/20 20/72/20 43/69/20 
f 45/73/21 43/69/21 20/72/21 
f 20/72/21 24/74/21 45/73/21 
f 46/75/22 45/73/22 24/74/22 
f 24/74/22 26/76/22 46/75/22 
f 47/77/23 46/75/23 26/76/23 
f 26/76/23 28/78/23 47/77/23 
f 48/79/24 47/77/24 28/78/24 
f 28/78/24 30/80/24 48/79/24 
f 49/81/25 48/79/25 30/80/25 
f 30/80/25 32/82/25 49/81/25 
f 50/83/26 49/81/26 32/82/26 
f 32/82/26 34/84/26 50/83/26 
f 51/85/27 50/83/27 34/84/27 
f 34/84/27 36/86/27 51/85/27 
f 52/87/28 51/85/28 36/86/28 
f 36/86/28 38/88/28 52/87/28 
f 53/89/29 52/87/29 38/88/29 
f 38/88/29 40/90/29 53/89/29 
f 54/91/30 53/89/30 40/90/30 
f 40/90/30 42/92/30 54/91/30 
f 44/70/31 54/91/31 42/92/31 
f 42/92/31 21/71/31 44/70/31 
f 45/73/32 46/75/32 47/77/32 
f 47/77/32 43/69/32 45/73/32 
f 48/79/32 44/70/32 43/69/32 
f 43/69/33 47/77/33 48/79/33 
f 52/87/32 53/89/32 50/83/32 
f 50/83/32 51/85/32 52/87/32 
f 50/83/33 53/89/33 54/91/33 
f 54/91/33 49/81/33 50/83/33 
f 44/70/32 48/79/32 49/81/32 
f 49/81/33 54/91/33 44/70/33 
# 90 faces

